<?xml version="1.0" standalone="no"?>
<!DOCTYPE svg PUBLIC "-//W3C//DTD SVG 20010904//EN"
 "http://www.w3.org/TR/2001/REC-SVG-20010904/DTD/svg10.dtd">
<svg version="1.0" xmlns="http://www.w3.org/2000/svg"
 width="1024.000000pt" height="1024.000000pt" viewBox="0 0 1024.000000 1024.000000"
 preserveAspectRatio="xMidYMid meet">

<g transform="translate(0.000000,1024.000000) scale(0.100000,-0.100000)"
fill="#000000" stroke="none">
<path d="M4020 7380 c-9 -6 -10 -10 -3 -10 6 0 15 5 18 10 8 12 4 12 -15 0z"/>
<path d="M3297 7272 c-15 -16 -15 -18 1 -19 11 -1 18 6 18 18 0 23 1 23 -19 1z"/>
<path d="M3205 7199 c-33 -26 -59 -53 -57 -59 1 -6 -1 -9 -6 -6 -12 7 -94 -78
-85 -89 5 -4 3 -5 -3 -2 -17 10 -185 -169 -289 -308 -280 -375 -460 -761 -549
-1180 -71 -338 -75 -775 -10 -1135 22 -126 88 -346 150 -503 250 -637 754
-1198 1347 -1501 297 -152 603 -245 992 -303 162 -24 556 -24 734 1 715 97
1248 352 1713 818 139 140 315 358 410 508 455 719 562 1645 284 2456 -124
363 -308 680 -565 974 -126 144 -174 191 -183 177 -5 -8 -8 -6 -9 8 0 11 -18
35 -40 54 -28 24 -37 28 -33 15 7 -18 6 -18 -16 1 -15 13 -21 15 -16 5 4 -8
-4 -3 -18 13 -14 15 -27 27 -30 27 -3 0 -17 -12 -31 -26 -22 -22 -33 -25 -71
-22 -33 2 -43 0 -39 -10 3 -10 0 -10 -15 -2 -21 11 -90 4 -90 -10 0 -8 -39
-23 -55 -21 -5 1 3 -10 18 -24 16 -14 33 -22 39 -19 6 4 8 2 5 -3 -9 -14 29
-47 44 -37 7 4 10 3 6 -3 -4 -6 23 -37 60 -69 126 -111 300 -304 404 -450 105
-146 234 -383 294 -539 12 -33 32 -84 44 -114 l22 -53 -48 6 c-31 4 -116 40
-238 101 -202 99 -252 118 -355 135 -144 22 -283 3 -478 -66 -150 -53 -189
-63 -302 -74 -102 -11 -243 2 -339 32 -36 11 -119 47 -184 79 -145 73 -204 94
-335 119 -113 22 -251 26 -350 10 -91 -15 -251 -70 -377 -130 -145 -68 -230
-96 -342 -110 -124 -16 -246 -1 -378 46 -244 87 -370 112 -504 100 -157 -14
-274 -53 -426 -142 -50 -30 -118 -63 -149 -74 -70 -24 -156 -37 -156 -23 0 36
64 192 147 358 167 332 405 630 701 873 54 44 92 83 92 94 0 10 5 18 10 18 6
0 10 18 10 40 l0 40 -100 0 c-85 0 -100 2 -100 16 0 13 -6 15 -27 10 -102 -25
-105 -25 -87 -4 14 14 19 16 26 6 5 -9 8 -10 8 -1 0 26 -18 19 -75 -28z m3715
-75 c0 -8 -5 -12 -10 -9 -6 4 -8 11 -5 16 9 14 15 11 15 -7z m-145 -34 c3 -6
-1 -7 -9 -4 -18 7 -21 14 -7 14 6 0 13 -4 16 -10z m-1440 -1260 c44 -12 149
-50 235 -85 183 -74 289 -102 425 -111 133 -9 283 14 445 67 163 53 238 69
330 69 146 0 220 -25 455 -155 55 -30 116 -60 135 -66 73 -23 157 -38 207 -39
48 0 52 -2 57 -27 11 -54 26 -158 26 -182 l0 -24 -132 5 c-135 5 -212 23 -333
77 -22 10 -63 28 -91 40 -33 15 -60 21 -75 16 -19 -5 -21 -4 -9 4 12 9 9 11
-13 11 -15 0 -41 7 -58 15 -18 10 -36 13 -47 7 -22 -11 -134 -3 -126 9 7 12
-3 11 -29 -3 -12 -6 -49 -13 -82 -14 -33 -2 -113 -17 -177 -34 -146 -38 -290
-53 -433 -46 -87 4 -114 2 -129 -9 -26 -19 -66 -19 -94 0 -12 9 -27 15 -34 14
-7 -1 -20 0 -28 3 -83 28 -104 31 -293 29 -133 -1 -196 2 -192 9 4 6 -16 10
-54 10 -34 0 -61 4 -61 10 0 6 -27 10 -60 10 l-60 0 0 34 c0 39 -28 59 -37 26
-4 -14 -14 -20 -34 -20 -31 0 -39 17 -14 26 21 9 19 27 -2 20 -17 -6 -17 -5
-1 7 10 8 15 17 12 20 -8 7 -37 -3 -46 -17 -6 -7 -11 -6 -18 4 -9 14 -15 7
-10 -15 1 -5 -4 -4 -11 3 -16 15 -33 16 -23 0 5 -8 2 -9 -10 -5 -10 4 -23 4
-29 0 -6 -4 -23 -8 -36 -9 -14 -2 -31 -10 -37 -19 -13 -18 -28 -20 -19 -2 4 6
0 4 -8 -5 -8 -10 -29 -21 -48 -24 -19 -4 -38 -10 -44 -14 -10 -8 -114 -40
-215 -66 -82 -22 -356 -29 -515 -14 -74 7 -132 16 -130 20 3 4 -19 11 -47 14
-29 4 -58 12 -66 18 -10 8 -17 7 -29 -5 -14 -13 -19 -14 -37 -2 -30 19 -105
35 -112 24 -3 -6 -15 -7 -27 -4 -17 5 -19 4 -7 -4 8 -6 24 -8 35 -5 18 4 18 4
2 -6 -21 -13 -74 9 -69 30 3 12 -16 12 -108 -6 -22 -4 -23 -3 -5 5 18 9 17 10
-8 10 -31 1 -117 -18 -132 -29 -5 -4 -27 -13 -47 -19 -21 -7 -38 -16 -38 -20
0 -4 -6 -8 -12 -8 -7 0 -60 -18 -118 -41 -58 -22 -134 -45 -170 -51 -66 -10
-267 -17 -275 -9 -7 7 26 202 36 214 5 6 44 14 86 17 142 12 197 32 471 177
123 65 212 85 346 77 56 -3 130 -14 166 -25 255 -76 319 -92 411 -102 189 -21
325 3 584 105 190 74 212 82 302 100 102 21 335 14 438 -15z m1432 -396 c-3
-3 -12 -4 -19 -1 -8 3 -5 6 6 6 11 1 17 -2 13 -5z m-3552 -235 c19 -17 69 -74
112 -128 42 -53 80 -100 85 -106 11 -11 23 2 129 142 39 50 81 98 94 107 36
24 78 20 106 -10 24 -26 24 -26 27 -287 2 -144 0 -272 -3 -285 -16 -62 -94
-84 -140 -37 -24 23 -25 29 -25 160 l0 135 -72 -82 c-40 -46 -77 -86 -83 -90
-29 -21 -55 -6 -113 65 -97 118 -92 120 -92 -34 0 -123 -2 -134 -22 -156 -25
-27 -73 -30 -105 -8 -35 25 -41 74 -43 322 0 181 2 239 14 266 26 64 76 74
131 26z m1157 8 c30 -19 42 -62 28 -98 -18 -42 -43 -49 -176 -49 l-114 0 0
-45 0 -45 91 0 c87 0 92 -1 120 -29 34 -35 36 -59 9 -94 -20 -25 -27 -26 -123
-29 l-102 -3 0 -40 0 -40 127 -5 c117 -5 128 -7 152 -29 41 -38 34 -91 -15
-116 -21 -12 -69 -15 -204 -15 -173 0 -176 0 -200 25 -24 23 -25 30 -26 162
-3 408 -3 412 21 438 12 13 32 26 44 29 39 8 350 -6 368 -17z m576 8 c108 -33
153 -107 96 -160 -31 -29 -64 -32 -98 -10 -13 9 -45 18 -72 21 -93 10 -174
-64 -174 -158 0 -127 97 -205 205 -163 36 13 45 21 45 41 0 22 -3 24 -55 24
-46 0 -60 4 -80 25 -14 13 -25 36 -25 50 0 14 11 37 25 50 23 23 31 25 130 25
154 0 155 -1 155 -146 l0 -114 -35 -39 c-50 -55 -123 -85 -211 -85 -60 0 -80
4 -137 32 -194 96 -246 325 -114 504 46 62 161 117 248 118 25 0 69 -7 97 -15z
m649 -9 c28 -24 28 -25 31 -168 2 -78 1 -208 -3 -287 -6 -121 -10 -146 -26
-162 -28 -28 -80 -25 -110 7 l-24 26 -3 274 -3 275 30 29 c36 37 70 38 108 6z
m327 -1 l26 -24 0 -282 c0 -276 0 -283 -22 -306 -39 -42 -106 -26 -128 31 -15
41 -13 546 3 567 34 44 83 50 121 14z m863 -7 c12 -12 44 -54 70 -94 27 -41
50 -74 53 -74 3 0 26 28 50 61 100 137 135 158 198 120 47 -30 44 -72 -11
-147 -24 -33 -69 -97 -101 -144 l-58 -85 6 -90 c10 -133 -10 -175 -83 -175
-20 0 -36 8 -50 26 -18 23 -21 41 -21 136 0 124 1 122 -134 302 -67 90 -79
124 -53 157 34 43 92 47 134 7z m-245 -5 c43 -41 35 -93 -19 -121 -13 -7 -67
-12 -132 -12 l-111 0 0 -45 0 -45 79 0 c96 0 131 -20 131 -76 0 -59 -26 -74
-125 -74 l-85 0 0 -90 c0 -95 -14 -142 -45 -154 -34 -13 -67 -5 -90 20 l-25
27 0 274 0 274 25 24 c24 25 27 25 196 25 l173 0 28 -27z m-3914 -140 c99 -5
112 -7 112 -23 0 -31 -29 -45 -91 -44 -33 0 -86 9 -119 19 -52 16 -60 21 -60
43 0 21 3 23 23 17 12 -4 73 -10 135 -12z m5052 -9 c0 -18 -46 -39 -121 -53
-76 -13 -113 -3 -117 33 l-4 28 59 -6 c32 -3 74 -2 93 3 57 15 90 13 90 -5z
m-2368 -58 c24 -18 39 -63 32 -92 -8 -33 -50 -64 -86 -64 -40 0 -88 48 -88 88
0 43 43 82 89 82 20 0 44 -6 53 -14z m-2670 -137 c67 -34 90 -40 132 -39 28 2
57 2 64 1 21 -2 13 -30 -13 -47 -41 -27 -142 -15 -257 31 -90 35 -98 40 -98
65 0 15 3 30 8 34 14 15 84 -5 164 -45z m5033 17 c0 -33 -2 -34 -110 -77 -98
-39 -232 -52 -254 -25 -25 30 -7 46 48 39 44 -5 60 -1 148 40 143 66 168 70
168 23z m-5067 -353 c62 -17 166 -21 240 -9 53 8 54 8 50 -15 -7 -53 -186 -62
-321 -18 -37 12 -67 25 -67 30 0 4 -3 15 -6 24 -7 18 1 17 104 -12z m5032 14
c0 -48 -101 -82 -242 -81 -101 0 -128 10 -128 45 0 16 8 17 103 13 84 -4 113
-2 162 15 72 23 105 26 105 8z m-2330 -212 c30 -9 111 -44 180 -76 160 -74
229 -93 350 -93 116 0 198 21 360 94 63 29 151 61 195 72 140 36 335 15 460
-50 17 -8 83 -50 147 -94 64 -43 142 -90 174 -105 78 -36 188 -63 257 -63 34
0 57 -4 57 -11 0 -16 -130 -263 -144 -272 -6 -4 -54 -6 -106 -4 -107 5 -159
22 -266 88 -183 112 -318 156 -453 146 -78 -5 -158 -29 -333 -102 -121 -50
-201 -65 -348 -65 -164 0 -246 19 -419 95 -147 65 -190 76 -302 82 -132 7
-168 -1 -376 -84 -197 -78 -263 -93 -416 -93 -146 0 -225 17 -375 81 -185 80
-239 93 -351 86 -105 -6 -206 -36 -289 -87 -197 -120 -280 -149 -429 -150 -79
0 -82 1 -103 29 -11 17 -45 81 -75 143 l-55 113 88 6 c160 11 255 47 432 164
207 136 310 170 494 162 134 -5 173 -16 329 -90 257 -124 421 -125 677 -5 205
96 258 108 445 104 96 -3 157 -9 195 -21z m-1545 -755 c43 -11 142 -51 219
-90 175 -86 246 -104 381 -97 124 7 194 28 366 112 156 76 231 95 371 95 133
0 192 -16 353 -94 189 -93 254 -111 395 -111 141 1 183 12 380 105 173 81 224
94 355 94 122 -1 187 -21 328 -101 54 -30 125 -67 158 -82 l60 -27 -33 -40
c-19 -21 -67 -74 -107 -116 l-73 -77 -37 29 c-54 44 -142 71 -248 77 -128 8
-261 -23 -418 -97 -92 -44 -223 -78 -318 -84 -138 -9 -252 18 -493 118 -132
55 -221 76 -324 76 -89 0 -153 -15 -298 -71 -297 -115 -377 -132 -536 -118
-92 9 -209 41 -305 86 -191 87 -339 111 -483 79 -41 -9 -110 -34 -153 -56
l-78 -39 -41 46 c-22 25 -58 64 -78 85 -21 21 -47 52 -58 68 l-21 30 28 11
c80 32 135 58 198 93 203 114 340 140 510 96z m-37 -690 c230 -104 387 -144
567 -144 149 1 209 15 420 98 203 81 261 96 372 96 109 0 168 -15 353 -89 204
-82 298 -105 440 -105 158 0 340 44 495 121 68 34 177 75 182 69 6 -6 -198
-108 -306 -153 -295 -122 -550 -119 -866 12 -153 63 -263 82 -381 66 -73 -11
-126 -27 -354 -111 -221 -81 -460 -76 -705 17 -101 38 -384 182 -359 183 6 0
70 -27 142 -60z"/>
<path d="M5120 5520 c0 -5 5 -10 10 -10 6 0 10 5 10 10 0 6 -4 10 -10 10 -5 0
-10 -4 -10 -10z"/>
<path d="M5380 5490 c-9 -6 -10 -10 -3 -10 6 0 15 5 18 10 8 12 4 12 -15 0z"/>
<path d="M5508 5448 c6 -6 18 -8 28 -6 14 3 12 5 -9 10 -19 3 -25 2 -19 -4z"/>
<path d="M3746 7235 c-11 -8 -16 -15 -10 -15 5 0 18 7 28 15 11 8 16 15 10 15
-5 0 -18 -7 -28 -15z"/>
<path d="M3656 7191 c-12 -5 -15 -10 -9 -14 6 -4 16 0 23 8 14 17 13 17 -14 6z"/>
<path d="M6953 7164 c0 -8 6 -14 14 -14 7 0 13 4 13 9 0 5 -6 11 -13 14 -8 3
-14 -1 -14 -9z"/>
<path d="M3597 7138 c-5 -16 -3 -16 19 -1 29 19 29 19 5 19 -11 0 -22 -8 -24
-18z"/>
<path d="M6500 7155 c0 -8 29 -12 39 -5 9 5 4 8 -13 8 -14 0 -26 -2 -26 -3z"/>
<path d="M6554 7121 c11 -12 25 -21 32 -21 7 0 15 -6 17 -12 4 -9 6 -9 6 -1 1
6 -16 21 -36 33 -37 22 -38 22 -19 1z"/>
<path d="M3560 7110 c-8 -5 -12 -12 -9 -15 4 -3 12 1 19 10 14 17 11 19 -10 5z"/>
</g>
</svg>
